<?xml version="1.0" encoding="UTF-8"?>
<svg width="128" height="128" viewBox="0 0 128 128" xmlns="http://www.w3.org/2000/svg">
  <!-- Background circle for clean design -->
  <circle cx="64" cy="64" r="62" fill="#f8f9fa" stroke="#e9ecef" stroke-width="2"/>
  
  <!-- Central mediator hexagon -->
  <polygon points="64,20 84,32 84,52 64,64 44,52 44,32" fill="#2563eb" stroke="#1d4ed8" stroke-width="2"/>
  
  <!-- Peripheral connection points -->
  <!-- Top -->
  <circle cx="64" cy="12" r="4" fill="#6b7280"/>
  <!-- Top-right -->
  <circle cx="92" cy="24" r="4" fill="#6b7280"/>
  <!-- Right -->
  <circle cx="108" cy="64" r="4" fill="#6b7280"/>
  <!-- Bottom-right -->
  <circle cx="92" cy="104" r="4" fill="#6b7280"/>
  <!-- Bottom -->
  <circle cx="64" cy="116" r="4" fill="#6b7280"/>
  <!-- Bottom-left -->
  <circle cx="36" cy="104" r="4" fill="#6b7280"/>
  <!-- Left -->
  <circle cx="20" cy="64" r="4" fill="#6b7280"/>
  <!-- Top-left -->
  <circle cx="36" cy="24" r="4" fill="#6b7280"/>
  
  <!-- Connection lines from peripheral points to center -->
  <!-- Top to center -->
  <line x1="64" y1="16" x2="64" y2="32" stroke="#3b82f6" stroke-width="2" opacity="0.8"/>
  <!-- Top-right to center -->
  <line x1="88" y1="28" x2="76" y2="40" stroke="#3b82f6" stroke-width="2" opacity="0.8"/>
  <!-- Right to center -->
  <line x1="104" y1="64" x2="84" y2="52" stroke="#3b82f6" stroke-width="2" opacity="0.8"/>
  <!-- Bottom-right to center -->
  <line x1="88" y1="100" x2="76" y2="56" stroke="#3b82f6" stroke-width="2" opacity="0.8"/>
  <!-- Bottom to center -->
  <line x1="64" y1="112" x2="64" y2="64" stroke="#3b82f6" stroke-width="2" opacity="0.8"/>
  <!-- Bottom-left to center -->
  <line x1="40" y1="100" x2="52" y2="56" stroke="#3b82f6" stroke-width="2" opacity="0.8"/>
  <!-- Left to center -->
  <line x1="24" y1="64" x2="44" y2="52" stroke="#3b82f6" stroke-width="2" opacity="0.8"/>
  <!-- Top-left to center -->
  <line x1="40" y1="28" x2="52" y2="40" stroke="#3b82f6" stroke-width="2" opacity="0.8"/>
  
  <!-- Arrow heads pointing toward center (optional enhancement) -->
  <defs>
    <marker id="arrowhead" markerWidth="6" markerHeight="4" refX="0" refY="2" orient="auto" fill="#3b82f6">
      <polygon points="0 0, 6 2, 0 4"/>
    </marker>
  </defs>
</svg>